<svg id="Flat" height="512" viewBox="0 0 512 512" width="512" xmlns="http://www.w3.org/2000/svg"><path d="m304 232a24 24 0 0 1 -16.971-40.971l160-160a24 24 0 0 1 33.942 33.942l-160 160a23.926 23.926 0 0 1 -16.971 7.029z" fill="#8690fa"/><path d="m464 200a24 24 0 0 1 -24-24v-104h-104a24 24 0 0 1 0-48h128a24 24 0 0 1 24 24v128a24 24 0 0 1 -24 24z" fill="#5153ff"/><path d="m464 488h-416a24 24 0 0 1 -24-24v-416a24 24 0 0 1 24-24h176a24 24 0 0 1 0 48h-152v368h368v-152a24 24 0 0 1 48 0v176a24 24 0 0 1 -24 24z" fill="#8690fa"/></svg>