<svg id="Flat" height="512" viewBox="0 0 512 512" width="512" xmlns="http://www.w3.org/2000/svg"><g fill="#5153ff"><path d="m192 424a23.928 23.928 0 0 1 -16.971-7.029l-144-144a24 24 0 0 1 0-33.942l144-144a24 24 0 0 1 33.942 33.942l-127.03 127.029 127.03 127.029a24 24 0 0 1 -16.971 40.971z"/><path d="m328 424a23.928 23.928 0 0 1 -16.971-7.029l-144-144a24 24 0 0 1 0-33.942l144-144a24 24 0 0 1 33.942 33.942l-127.03 127.029 127.03 127.029a24 24 0 0 1 -16.971 40.971z"/><path d="m464 424a23.928 23.928 0 0 1 -16.971-7.029l-144-144a24 24 0 0 1 0-33.942l144-144a24 24 0 0 1 33.942 33.942l-127.03 127.029 127.03 127.029a24 24 0 0 1 -16.971 40.971z"/></g></svg>