<svg id="Flat" height="512" viewBox="0 0 512 512" width="512" xmlns="http://www.w3.org/2000/svg"><path d="m464 280h-304a24 24 0 0 1 0-48h304a24 24 0 0 1 0 48z" fill="#8690fa"/><path d="m336.019 376a24 24 0 0 1 -14.419-43.2l102.4-76.8-102.4-76.8a24 24 0 0 1 28.8-38.4l128 96a24 24 0 0 1 0 38.4l-128 96a23.893 23.893 0 0 1 -14.381 4.8z" fill="#5153ff"/><path d="m224 488h-176a24 24 0 0 1 -24-24v-416a24 24 0 0 1 24-24h176a24 24 0 0 1 24 24v96a24 24 0 0 1 -48 0v-72h-128v368h128v-72a24 24 0 0 1 48 0v96a24 24 0 0 1 -24 24z" fill="#8690fa"/></svg>