<svg id="Flat" height="512" viewBox="0 0 512 512" width="512" xmlns="http://www.w3.org/2000/svg"><path d="m48 280a24 24 0 0 1 -24-24c0-74.99 61.009-136 136-136h304a24 24 0 0 1 0 48h-304a88.1 88.1 0 0 0 -88 88 24 24 0 0 1 -24 24z" fill="#8690fa"/><path d="m336.02 264a24 24 0 0 1 -14.42-43.2l102.4-76.8-102.4-76.8a24 24 0 1 1 28.8-38.4l128 96a24 24 0 0 1 0 38.4l-128 96a23.9 23.9 0 0 1 -14.38 4.8z" fill="#5153ff"/><path d="m352 392h-304a24 24 0 0 1 0-48h304a88.1 88.1 0 0 0 88-88 24 24 0 0 1 48 0c0 74.99-61.01 136-136 136z" fill="#8690fa"/><path d="m175.98 488a23.884 23.884 0 0 1 -14.381-4.8l-128-96a24 24 0 0 1 0-38.4l128-96a24 24 0 1 1 28.8 38.4l-102.399 76.8 102.4 76.8a24 24 0 0 1 -14.42 43.2z" fill="#5153ff"/></svg>