<svg id="Flat" height="512" viewBox="0 0 512 512" width="512" xmlns="http://www.w3.org/2000/svg"><path d="m208 232a23.928 23.928 0 0 1 -16.971-7.029l-160-160a24 24 0 0 1 33.942-33.942l160 160a24 24 0 0 1 -16.971 40.971z" fill="#8690fa"/><path d="m208 232h-128a24 24 0 0 1 0-48h104v-104a24 24 0 0 1 48 0v128a24 24 0 0 1 -24 24z" fill="#5153ff"/><path d="m464 488a23.926 23.926 0 0 1 -16.971-7.029l-160-160a24 24 0 0 1 33.942-33.942l160 160a24 24 0 0 1 -16.971 40.971z" fill="#8690fa"/><path d="m304 456a24 24 0 0 1 -24-24v-128a24 24 0 0 1 24-24h128a24 24 0 0 1 0 48h-104v104a24 24 0 0 1 -24 24z" fill="#5153ff"/></svg>