<svg id="Flat" height="512" viewBox="0 0 512 512" width="512" xmlns="http://www.w3.org/2000/svg"><path d="m256 216a24 24 0 0 1 -24-24v-144a24 24 0 0 1 48 0v144a24 24 0 0 1 -24 24z" fill="#8690fa"/><path d="m320 136a23.926 23.926 0 0 1 -16.971-7.029l-47.029-47.03-47.029 47.03a24 24 0 0 1 -33.942-33.942l64-64a24 24 0 0 1 33.942 0l64 64a24 24 0 0 1 -16.971 40.971z" fill="#5153ff"/><path d="m256 488a24 24 0 0 1 -24-24v-144a24 24 0 0 1 48 0v144a24 24 0 0 1 -24 24z" fill="#8690fa"/><path d="m256 488a23.926 23.926 0 0 1 -16.971-7.029l-64-64a24 24 0 0 1 33.942-33.942l47.029 47.03 47.029-47.03a24 24 0 0 1 33.942 33.942l-64 64a23.926 23.926 0 0 1 -16.971 7.029z" fill="#5153ff"/><path d="m464 280h-144a24 24 0 0 1 0-48h144a24 24 0 0 1 0 48z" fill="#8690fa"/><path d="m400 344a24 24 0 0 1 -16.971-40.971l47.03-47.029-47.03-47.029a24 24 0 0 1 33.942-33.942l64 64a24 24 0 0 1 0 33.942l-64 64a23.926 23.926 0 0 1 -16.971 7.029z" fill="#8690fa"/><path d="m400 344a24 24 0 0 1 -16.971-40.971l47.03-47.029-47.03-47.029a24 24 0 0 1 33.942-33.942l64 64a24 24 0 0 1 0 33.942l-64 64a23.926 23.926 0 0 1 -16.971 7.029z" fill="#5153ff"/><path d="m192 280h-144a24 24 0 0 1 0-48h144a24 24 0 0 1 0 48z" fill="#8690fa"/><path d="m112 344a23.926 23.926 0 0 1 -16.971-7.029l-64-64a24 24 0 0 1 0-33.942l64-64a24 24 0 0 1 33.942 33.942l-47.03 47.029 47.03 47.029a24 24 0 0 1 -16.971 40.971z" fill="#8690fa"/><path d="m112 344a23.926 23.926 0 0 1 -16.971-7.029l-64-64a24 24 0 0 1 0-33.942l64-64a24 24 0 0 1 33.942 33.942l-47.03 47.029 47.03 47.029a24 24 0 0 1 -16.971 40.971z" fill="#5153ff"/></svg>