<svg id="Flat" height="512" viewBox="0 0 512 512" width="512" xmlns="http://www.w3.org/2000/svg"><path d="m256 488a24 24 0 0 1 -24-24v-416a24 24 0 0 1 48 0v416a24 24 0 0 1 -24 24z" fill="#8690fa"/><g fill="#5153ff"><path d="m391.986 184a23.9 23.9 0 0 1 -15.243-5.474l-120.743-99.436-120.743 99.436a24 24 0 1 1 -30.513-37.053l136-112a24 24 0 0 1 30.514 0l136 112a24 24 0 0 1 -15.272 42.527z"/><path d="m256 488a23.956 23.956 0 0 1 -15.257-5.474l-136-112a24 24 0 0 1 30.513-37.053l120.744 99.436 120.743-99.435a24 24 0 1 1 30.513 37.053l-136 112a23.956 23.956 0 0 1 -15.256 5.473z"/></g></svg>