<svg id="Flat" height="512" viewBox="0 0 512 512" width="512" xmlns="http://www.w3.org/2000/svg"><path d="m488 256a24 24 0 0 1 -24 24h-416a24 24 0 0 1 0-48h416a24 24 0 0 1 24 24z" fill="#8690fa"/><g fill="#5153ff"><path d="m184 120.014a23.9 23.9 0 0 1 -5.474 15.243l-99.436 120.743 99.436 120.743a24 24 0 0 1 -37.053 30.513l-112-136a24 24 0 0 1 0-30.514l112-136a24 24 0 0 1 42.527 15.272z"/><path d="m488 256a23.956 23.956 0 0 1 -5.474 15.257l-112 136a24 24 0 1 1 -37.053-30.513l99.436-120.744-99.435-120.743a24 24 0 1 1 37.053-30.513l112 136a23.956 23.956 0 0 1 5.473 15.256z"/></g></svg>