<svg id="Flat" height="512" viewBox="0 0 512 512" width="512" xmlns="http://www.w3.org/2000/svg"><path d="m464 272h-160a183.565 183.565 0 0 0 -136 60.193v-284.193a24 24 0 0 0 -48 0v416a24 24 0 0 0 48 0v-8c0-74.99 61.009-136 136-136h160a24 24 0 0 0 0-48z" fill="#8690fa"/><g fill="#5153ff"><path d="m240.017 200a23.961 23.961 0 0 1 -19.218-9.6l-76.799-102.4-76.8 102.4a24 24 0 1 1 -38.4-28.8l96-128a24 24 0 0 1 38.4 0l96 128a24 24 0 0 1 -19.183 38.4z"/><path d="m336.02 416a24 24 0 0 1 -14.42-43.2l102.4-76.8-102.4-76.8a24 24 0 1 1 28.8-38.4l128 96a24 24 0 0 1 0 38.4l-128 96a23.9 23.9 0 0 1 -14.38 4.8z"/></g></svg>