<svg id="direction" height="100" viewBox="0 0 512 512" width="100" xmlns="http://www.w3.org/2000/svg"><path d="m480.971 31.029a24 24 0 0 0 -33.942 0l-191.029 191.03-191.029-191.03a24 24 0 0 0 -33.942 33.942l200.971 200.97v198.059a24 24 0 0 0 48 0v-198.059l200.971-200.97a24 24 0 0 0 0-33.942z" fill="#8690fa"/><g fill="#5153ff"><path d="m48 200a24 24 0 0 1 -24-24v-128a24 24 0 0 1 24-24h128a24 24 0 0 1 0 48h-104v104a24 24 0 0 1 -24 24z"/><path d="m464 200a24 24 0 0 1 -24-24v-104h-104a24 24 0 0 1 0-48h128a24 24 0 0 1 24 24v128a24 24 0 0 1 -24 24z"/></g></svg>