<svg id="Flat" height="512" viewBox="0 0 512 512" width="512" xmlns="http://www.w3.org/2000/svg"><path d="m168 48v416a24 24 0 0 1 -48 0v-416a24 24 0 0 1 48 0z" fill="#8690fa"/><path d="m264 175.98a24 24 0 0 1 -43.2 14.42l-76.8-102.4-76.8 102.4a24 24 0 1 1 -38.4-28.8l96-128a24 24 0 0 1 38.4 0l96 128a23.893 23.893 0 0 1 4.8 14.38z" fill="#5153ff"/><path d="m392 48v416a24 24 0 0 1 -48 0v-416a24 24 0 0 1 48 0z" fill="#8690fa"/><path d="m488 336.02a23.884 23.884 0 0 1 -4.8 14.381l-96 128a24 24 0 0 1 -38.4 0l-96-128a24 24 0 1 1 38.4-28.8l76.8 102.399 76.8-102.4a24 24 0 0 1 43.2 14.42z" fill="#5153ff"/></svg>