<svg id="Flat" height="512" viewBox="0 0 512 512" width="512" xmlns="http://www.w3.org/2000/svg"><path d="m256 376a24 24 0 0 1 -24-24v-304a24 24 0 0 1 48 0v304a24 24 0 0 1 -24 24z" fill="#8690fa"/><g fill="#5153ff"><path d="m400 216a23.928 23.928 0 0 1 -16.971-7.029l-127.029-127.03-127.029 127.03a24 24 0 0 1 -33.942-33.942l144-144a24 24 0 0 1 33.942 0l144 144a24 24 0 0 1 -16.971 40.971z"/><path d="m464 488h-416a24 24 0 0 1 -24-24v-112a24 24 0 0 1 48 0v88h368v-88a24 24 0 0 1 48 0v112a24 24 0 0 1 -24 24z"/></g></svg>